<svg width="700" height="240" viewBox="0 0 700 240" fill="none" xmlns="http://www.w3.org/2000/svg">
<g clip-path="url(#clip0_138_1214)">
<rect width="700" height="240" rx="20.5714" fill="white"/>
<path d="M92.2742 67.2106L91.7337 65.3231C90.9019 62.0913 90.9803 59.582 91.9829 58.0305C92.5738 57.1512 93.484 56.5351 94.523 56.3194C95.1783 56.2634 95.7832 55.947 96.2005 55.4429C96.6094 54.936 96.7914 54.2835 96.7018 53.6393L95.7916 47.3662C95.5844 46.1228 94.4614 45.2434 93.204 45.3414C89.3308 45.5907 81.6771 48.1643 80.5008 56.1626C80.1536 59.4364 79.025 62.5758 77.2074 65.3203C77.1822 65.3203 77.157 65.3203 77.1318 65.3203L80.0948 66.6337L92.2714 67.205L92.2742 67.2106Z" fill="#DC9A00"/>
<path d="M79.9303 64.0894C75.0042 64.1846 68.6526 65.2656 64.0906 69.4523C59.5258 73.6391 57.5346 80.5563 58.82 89.4312C59.7918 95.9227 60.6852 100.675 61.4077 104.487C63.6985 116.689 63.7909 117.159 57.347 129.14C48.3741 145.906 44.0782 161.732 45.8985 171.391C48.7214 186.43 62.6483 194.663 85.2008 194.663H87.052V64.0894H79.9303Z" fill="#FFB304"/>
<path d="M116.724 129.142C110.277 117.159 110.451 116.689 112.664 104.49C113.383 100.678 114.232 95.9285 115.251 89.4341C116.567 80.5565 114.812 73.8297 110.014 69.4553C105.528 65.3469 99.3499 64.2323 94.4574 64.0923H87.0557V194.666H88.9068C111.459 194.666 125.386 186.432 128.209 171.394C130.029 161.732 125.733 145.909 116.73 129.145L116.724 129.142Z" fill="#F18140"/>
<path d="M86.9355 143.635H102.991C112.214 143.635 119.701 151.124 119.701 160.348V163.862C119.701 174.491 111.072 183.119 100.447 183.119H86.9355V143.632V143.635Z" fill="#FFEDCA"/>
<path d="M93.6567 157.074V156.424C93.6567 153.071 96.6699 150.353 100.378 150.353V151.003C100.378 154.355 97.3648 157.074 93.6567 157.074Z" fill="#F18140"/>
<path d="M94.138 163.461L94.5767 163.023C96.8385 160.761 100.509 160.763 102.769 163.023L102.331 163.461C100.069 165.723 96.398 165.721 94.138 163.461Z" fill="#F18140"/>
<path d="M93.6572 169.677C97.3684 169.677 100.378 172.398 100.378 175.748V176.398C96.6673 176.398 93.6572 173.676 93.6572 170.327V169.677Z" fill="#F18140"/>
<path d="M178.138 156.59C196.307 156.59 205.434 147.547 205.434 136.83C205.434 115.228 173.031 121.089 173.031 114.056C173.031 112.046 174.873 110.372 180.65 110.372C185.758 110.372 191.2 111.795 196.977 114.725L202.922 100.408C196.81 96.9751 188.688 95.3005 180.818 95.3005C162.649 95.3005 153.522 104.176 153.522 115.06C153.522 136.913 185.925 130.969 185.925 138.337C185.925 140.346 183.916 141.519 178.306 141.519C171.859 141.519 164.491 139.425 158.965 136.16L152.601 150.561C158.462 154.162 168.342 156.59 178.138 156.59ZM594.939 152.571C592.511 154.999 589.665 156.338 586.818 156.338C584.725 156.338 583.134 155.752 581.375 153.91C592.846 149.305 600.298 138.923 600.298 125.945C600.298 108.195 586.315 95.3005 567.225 95.3005C548.135 95.3005 534.153 108.195 534.153 125.945C534.153 141.016 544.284 152.654 559.02 155.752C569.57 166.805 576.017 170.07 586.399 170.07C593.432 170.07 599.377 167.474 603.48 162.618L594.939 152.571ZM567.225 111.293C574.51 111.293 580.371 116.819 580.371 125.945C580.371 135.071 574.51 140.598 567.225 140.598C559.941 140.598 554.08 135.071 554.08 125.945C554.08 116.819 559.941 111.293 567.225 111.293ZM607.47 155.25H653.688V139.928H627.23V96.6401H607.47V155.25Z" fill="#F18140"/>
<path d="M269.756 152.571C267.328 154.999 264.481 156.338 261.634 156.338C259.541 156.338 257.95 155.752 256.192 153.91C267.663 149.305 275.115 138.923 275.115 125.945C275.115 108.195 261.132 95.3005 242.042 95.3005C222.952 95.3005 208.969 108.195 208.969 125.945C208.969 141.016 219.1 152.654 233.837 155.752C244.386 166.805 250.834 170.07 261.216 170.07C268.249 170.07 274.194 167.474 278.296 162.618L269.756 152.571ZM242.042 111.293C249.326 111.293 255.187 116.819 255.187 125.945C255.187 135.071 249.326 140.598 242.042 140.598C234.758 140.598 228.897 135.071 228.897 125.945C228.897 116.819 234.758 111.293 242.042 111.293ZM310.336 156.59C328.337 156.59 338.887 146.459 338.887 128.876V96.6401H319.462V128.289C319.462 137.248 316.029 140.598 310.503 140.598C304.977 140.598 301.544 137.248 301.544 128.289V96.6401H281.784V128.876C281.784 146.459 292.334 156.59 310.336 156.59ZM390.592 155.25H411.022L385.401 96.6401H365.976L340.355 155.25H360.45L364.385 145.035H386.657L390.592 155.25ZM369.827 130.801L375.521 116.065L381.214 130.801H369.827ZM436.028 156.59C454.197 156.59 463.324 147.547 463.324 136.83C463.324 115.228 430.921 121.089 430.921 114.056C430.921 112.046 432.763 110.372 438.54 110.372C443.648 110.372 449.09 111.795 454.867 114.725L460.812 100.408C454.7 96.9751 446.578 95.3005 438.708 95.3005C420.538 95.3005 411.412 104.176 411.412 115.06C411.412 136.913 443.815 130.969 443.815 138.337C443.815 140.346 441.805 141.519 436.196 141.519C429.749 141.519 422.381 139.425 416.854 136.16L410.491 150.561C416.352 154.162 426.232 156.59 436.028 156.59ZM507.216 96.6401V117.405H488.964V96.6401H469.204V155.25H488.964V133.648H507.216V155.25H526.976V96.6401H507.216Z" fill="#FFB304"/>
</g>
<defs>
<clipPath id="clip0_138_1214">
<rect width="700" height="240" fill="white"/>
</clipPath>
</defs>
</svg>
