<svg width="240" height="240" viewBox="0 0 240 240" fill="none" xmlns="http://www.w3.org/2000/svg">
<g clip-path="url(#clip0_136_1189)">
<rect width="240" height="240" rx="20.5714" fill="white"/>
<path d="M122.512 64.4236L122.189 63.2934C121.691 61.3583 121.738 59.8558 122.338 58.9267C122.692 58.4002 123.237 58.0313 123.859 57.9022C124.251 57.8686 124.614 57.6791 124.863 57.3773C125.108 57.0738 125.217 56.683 125.164 56.2974L124.619 52.5411C124.494 51.7965 123.822 51.27 123.069 51.3287C120.75 51.4779 116.167 53.019 115.463 57.8082C115.255 59.7686 114.579 61.6484 113.491 63.2917C113.475 63.2917 113.46 63.2917 113.445 63.2917L115.219 64.0782L122.511 64.4203L122.512 64.4236Z" fill="#DC9A00"/>
<path d="M115.121 62.5542C112.171 62.6112 108.368 63.2585 105.636 65.7655C102.903 68.2725 101.711 72.4144 102.481 77.7285C103.062 81.6156 103.597 84.4613 104.03 86.7436C105.402 94.0499 105.457 94.3316 101.598 101.505C96.2257 111.545 93.6533 121.021 94.7433 126.805C96.4336 135.81 104.773 140.74 118.277 140.74H119.385V62.5542H115.121Z" fill="#FFB304"/>
<path d="M137.153 101.508C133.293 94.3323 133.397 94.0506 134.721 86.746C135.152 84.4638 135.66 81.6197 136.271 77.731C137.059 72.4152 136.008 68.3872 133.135 65.7679C130.449 63.3079 126.749 62.6405 123.82 62.5566H119.388V140.742H120.496C134 140.742 142.34 135.812 144.03 126.807C145.12 121.022 142.547 111.547 137.156 101.51L137.153 101.508Z" fill="#F18140"/>
<path d="M119.315 110.185H128.929C134.452 110.185 138.935 114.67 138.935 120.193V122.297C138.935 128.662 133.768 133.828 127.406 133.828H119.315V110.184V110.185Z" fill="#FFEDCA"/>
<path d="M123.34 118.233V117.844C123.34 115.836 125.144 114.208 127.364 114.208V114.598C127.364 116.605 125.56 118.233 123.34 118.233Z" fill="#F18140"/>
<path d="M123.629 122.057L123.892 121.794C125.246 120.44 127.444 120.441 128.798 121.794L128.535 122.057C127.181 123.411 124.982 123.41 123.629 122.057Z" fill="#F18140"/>
<path d="M123.34 125.779C125.562 125.779 127.364 127.409 127.364 129.414V129.803C125.142 129.803 123.34 128.174 123.34 126.168V125.779Z" fill="#F18140"/>
<path d="M28.01 180.195C35.4424 180.195 39.1758 176.496 39.1758 172.112C39.1758 163.275 25.9207 165.673 25.9207 162.796C25.9207 161.973 26.6742 161.288 29.0375 161.288C31.1268 161.288 33.3531 161.871 35.7164 163.07L38.1482 157.213C35.6479 155.808 32.3256 155.123 29.106 155.123C21.6735 155.123 17.9402 158.754 17.9402 163.207C17.9402 172.146 31.1953 169.714 31.1953 172.728C31.1953 173.55 30.3733 174.03 28.0785 174.03C25.4411 174.03 22.4271 173.174 20.1665 171.838L17.5634 177.729C19.961 179.202 24.0026 180.195 28.01 180.195ZM198.512 178.551C197.518 179.544 196.354 180.092 195.189 180.092C194.333 180.092 193.682 179.852 192.963 179.099C197.655 177.215 200.704 172.968 200.704 167.659C200.704 160.398 194.984 155.123 187.175 155.123C179.365 155.123 173.645 160.398 173.645 167.659C173.645 173.824 177.79 178.585 183.818 179.852C188.134 184.374 190.771 185.709 195.018 185.709C197.895 185.709 200.327 184.648 202.005 182.661L198.512 178.551ZM187.175 161.665C190.154 161.665 192.552 163.926 192.552 167.659C192.552 171.392 190.154 173.653 187.175 173.653C184.195 173.653 181.797 171.392 181.797 167.659C181.797 163.926 184.195 161.665 187.175 161.665ZM203.638 179.647H222.544V173.379H211.721V155.671H203.638V179.647Z" fill="#F18140"/>
<path d="M65.4882 178.551C64.495 179.544 63.3304 180.092 62.1659 180.092C61.3096 180.092 60.6589 179.852 59.9396 179.099C64.632 177.215 67.6803 172.968 67.6803 167.659C67.6803 160.398 61.9604 155.123 54.1512 155.123C46.342 155.123 40.6221 160.398 40.6221 167.659C40.6221 173.824 44.7664 178.585 50.7946 179.852C55.1102 184.374 57.7475 185.709 61.9947 185.709C64.8717 185.709 67.3035 184.648 68.9818 182.661L65.4882 178.551ZM54.1512 161.665C57.131 161.665 59.5286 163.926 59.5286 167.659C59.5286 171.392 57.131 173.653 54.1512 173.653C51.1714 173.653 48.7738 171.392 48.7738 167.659C48.7738 163.926 51.1714 161.665 54.1512 161.665ZM82.0882 180.195C89.4521 180.195 93.7677 176.051 93.7677 168.858V155.671H85.8215V168.618C85.8215 172.283 84.4172 173.653 82.1567 173.653C79.8961 173.653 78.4918 172.283 78.4918 168.618V155.671H70.4086V168.858C70.4086 176.051 74.7242 180.195 82.0882 180.195ZM114.919 179.647H123.276L112.795 155.671H104.849L94.3682 179.647H102.588L104.198 175.468H113.309L114.919 179.647ZM106.425 169.646L108.754 163.618L111.083 169.646H106.425ZM133.506 180.195C140.938 180.195 144.671 176.496 144.671 172.112C144.671 163.275 131.416 165.673 131.416 162.796C131.416 161.973 132.17 161.288 134.533 161.288C136.622 161.288 138.849 161.871 141.212 163.07L143.644 157.213C141.143 155.808 137.821 155.123 134.602 155.123C127.169 155.123 123.436 158.754 123.436 163.207C123.436 172.146 136.691 169.714 136.691 172.728C136.691 173.55 135.869 174.03 133.574 174.03C130.937 174.03 127.923 173.174 125.662 171.838L123.059 177.729C125.457 179.202 129.498 180.195 133.506 180.195ZM162.627 155.671V164.166H155.16V155.671H147.077V179.647H155.16V170.81H162.627V179.647H170.71V155.671H162.627Z" fill="#FFB304"/>
</g>
<defs>
<clipPath id="clip0_136_1189">
<rect width="240" height="240" fill="white"/>
</clipPath>
</defs>
</svg>
